<?xml version="1.0" encoding="iso-8859-1"?>
<!-- Generator: Adobe Illustrator 19.0.0, SVG Export Plug-In . SVG Version: 6.00 Build 0)  -->
<svg version="1.1" id="Layer_1" xmlns="http://www.w3.org/2000/svg" xmlns:xlink="http://www.w3.org/1999/xlink" x="0px" y="0px"
	 viewBox="0 0 455 455" style="enable-background:new 0 0 455 455;" xml:space="preserve">
<path style="fill-rule:evenodd;clip-rule:evenodd;" d="M0,0v455h455V0H0z M341.887,373.953
	c-22.724,17.728-55.513,13.681-73.242-9.043l-71.26-91.334v59.228c0,28.832-23.362,52.197-52.183,52.197
	c-28.821,0-52.183-23.365-52.183-52.197V122.194C93.019,93.362,116.381,70,145.202,70c28.821,0,52.183,23.362,52.183,52.194v46.693
	l56.055-75.314c17.209-23.122,49.902-27.918,73.022-10.717c23.119,17.209,27.918,49.899,10.717,73.033l-48.446,65.082l62.206,79.737
	C368.667,323.432,364.619,356.221,341.887,373.953z"/>
<g>
</g>
<g>
</g>
<g>
</g>
<g>
</g>
<g>
</g>
<g>
</g>
<g>
</g>
<g>
</g>
<g>
</g>
<g>
</g>
<g>
</g>
<g>
</g>
<g>
</g>
<g>
</g>
<g>
</g>
</svg>
