<?xml version="1.0" encoding="iso-8859-1"?>
<!-- Generator: Adobe Illustrator 19.0.0, SVG Export Plug-In . SVG Version: 6.00 Build 0)  -->
<svg version="1.1" id="Layer_1" xmlns="http://www.w3.org/2000/svg" xmlns:xlink="http://www.w3.org/1999/xlink" x="0px" y="0px"
	 viewBox="0 0 455 455" style="enable-background:new 0 0 455 455;" xml:space="preserve">
<path style="fill-rule:evenodd;clip-rule:evenodd;" d="M0,0v455h455V0H0z M329.061,384.057c-30.889,0-55.939-25.039-55.939-55.939
	c0-1.518,0.111-3.001,0.233-4.487l-114.567-55.295c-9.229,6.713-20.563,10.724-32.849,10.724C95.05,279.06,70,254.021,70,223.124
	c0-30.889,25.05-55.927,55.939-55.927c15.177,0,28.927,6.061,38.998,15.877l108.287-54.211c-0.023-0.664-0.102-1.305-0.102-1.983
	c0-30.886,25.038-55.936,55.939-55.936c30.889,0,55.928,25.05,55.928,55.936c0,30.889-25.038,55.939-55.928,55.939
	c-14.825,0-28.274-5.806-38.278-15.222l-108.962,54.552c0.011,0.321,0.054,0.644,0.054,0.976c0,3.001-0.298,5.928-0.752,8.795
	l111.498,53.823c9.794-8.432,22.503-13.549,36.44-13.549c30.889,0,55.939,25.038,55.939,55.925
	C385,359.019,359.951,384.057,329.061,384.057z"/>
<g>
</g>
<g>
</g>
<g>
</g>
<g>
</g>
<g>
</g>
<g>
</g>
<g>
</g>
<g>
</g>
<g>
</g>
<g>
</g>
<g>
</g>
<g>
</g>
<g>
</g>
<g>
</g>
<g>
</g>
</svg>
