<?xml version="1.0" encoding="iso-8859-1"?>
<!-- Generator: Adobe Illustrator 19.0.0, SVG Export Plug-In . SVG Version: 6.00 Build 0)  -->
<svg version="1.1" id="Layer_1" xmlns="http://www.w3.org/2000/svg" xmlns:xlink="http://www.w3.org/1999/xlink" x="0px" y="0px"
	 viewBox="0 0 455 455" style="enable-background:new 0 0 455 455;" xml:space="preserve">
<path style="fill-rule:evenodd;clip-rule:evenodd;" d="M0,0v455h455V0H0z M384.849,159.356
	c-1.322,28.712-22.723,67.738-64.186,117.248c-42.728,51.813-78.958,77.786-108.765,77.919c-18.53,0-33.944-15.849-46.279-47.583
	l-12.977-43.54l-12.769-43.465c-9.444-31.508-19.551-47.224-30.317-47.224c-2.361,0-10.559,4.59-24.575,13.732L70,168.726
	l23.234-19.249l22.819-19.041c20.438-16.377,36.003-25.311,46.619-26.558c1.474-0.151,2.89-0.227,4.364-0.227
	c21.836,0,35.569,15.717,40.876,47.224c3.023,17.926,5.535,32.546,7.519,43.767c1.927,11.201,3.551,19.021,4.873,23.536
	c7.235,29.731,15.054,44.711,23.385,44.863c6.498,0,16.378-9.747,29.751-29.146c13.128-19.929,20.136-34.681,21.1-44.277
	c0.208-2.002,0.359-3.759,0.359-5.46c0-13.071-7.159-19.55-21.458-19.55c-7.235,0-14.922,1.549-23.178,4.572
	c14.753-45.675,43.239-68.55,85.362-68.701h3.552c30.468,0.812,45.674,18.077,45.825,51.946
	C385,154.633,384.925,156.995,384.849,159.356z"/>
<g>
</g>
<g>
</g>
<g>
</g>
<g>
</g>
<g>
</g>
<g>
</g>
<g>
</g>
<g>
</g>
<g>
</g>
<g>
</g>
<g>
</g>
<g>
</g>
<g>
</g>
<g>
</g>
<g>
</g>
</svg>
