<?xml version="1.0" encoding="iso-8859-1"?>
<!-- Generator: Adobe Illustrator 19.0.0, SVG Export Plug-In . SVG Version: 6.00 Build 0)  -->
<svg version="1.1" id="Layer_1" xmlns="http://www.w3.org/2000/svg" xmlns:xlink="http://www.w3.org/1999/xlink" x="0px" y="0px"
	 viewBox="0 0 455 455" style="enable-background:new 0 0 455 455;" xml:space="preserve">
<path style="fill-rule:evenodd;clip-rule:evenodd;" d="M0,0v455h455V0H0z M257.631,382.154c-30.841,4.746-61.853,4.746-90.764-9.342
	c-49.587-24.165-75.897-63.949-77.031-119.465c-0.5-24.563-0.102-49.147-0.102-73.731c0.022-27.927,0-55.849,0.022-83.771
	c0-10.438,4.574-18.312,13.899-22.972c9.32-4.66,18.452-3.547,26.788,2.563c6.697,4.913,9.427,11.862,9.406,20.134
	c-0.043,52.151-0.022,104.302-0.022,156.454c0,41.321,26.412,74.091,67.099,80.75c25.261,4.112,50.453,2.876,72.941-12.281
	c27.148-18.291,40.477-51.818,33.232-83.836c-7.261-32.06-33.737-56.752-66.174-61.014c-9.008-1.172-49.204-0.924-58.315-1.026
	c-14.34-0.188-25.449-9.992-26.288-23.428c-0.881-14.071,8.589-25.283,23.348-26.605c1.214-0.109,41.42-0.286,42.626-0.286
	c75.604,0,121.724,44.59,134.46,104.4C377.638,298.743,328.384,371.302,257.631,382.154z"/>
<g>
</g>
<g>
</g>
<g>
</g>
<g>
</g>
<g>
</g>
<g>
</g>
<g>
</g>
<g>
</g>
<g>
</g>
<g>
</g>
<g>
</g>
<g>
</g>
<g>
</g>
<g>
</g>
<g>
</g>
</svg>
