<?xml version="1.0" encoding="iso-8859-1"?>
<!-- Generator: Adobe Illustrator 19.0.0, SVG Export Plug-In . SVG Version: 6.00 Build 0)  -->
<svg version="1.1" id="Layer_1" xmlns="http://www.w3.org/2000/svg" xmlns:xlink="http://www.w3.org/1999/xlink" x="0px" y="0px"
	 viewBox="0 0 455 455" style="enable-background:new 0 0 455 455;" xml:space="preserve">
<g>
	<path style="fill-rule:evenodd;clip-rule:evenodd;" d="M292.046,105.179H160.965c-8.299,0-11.128,2.806-11.128,11.039
		c0,68.046,0,136.092,0.011,204.152c0,1.097-0.313,2.277,0.629,3.69c0.54-0.595,0.899-0.954,1.212-1.347
		c11.812-14.772,23.58-29.582,35.472-44.299c6.886-8.523,13.437-17.343,20.763-25.519c2.455-2.748,5.531-4.063,9.132-4.207
		c5.416-0.224,10.847-0.451,16.277-0.482c11.395-0.081,22.793,0,34.179-0.046c4.667-0.023,7.932-2.332,8.816-6.484
		c2.613-12.36,5.126-24.757,7.561-37.164c0.695-3.535-0.313-6.653-3.42-8.807c-1.895-1.313-4.083-1.456-6.306-1.456
		c-17.667,0.02-35.334,0.043-53.004-0.012c-8.334-0.023-14.155-5.913-14.29-14.235c-0.023-1.671-0.011-3.343,0-5.025
		c0.012-10.557,5.428-15.953,16.065-15.964c20.585-0.012,41.178,0.011,61.774-0.012c5.732-0.012,9.109-2.602,10.287-8.075
		c2.401-11.24,4.779-22.492,6.99-33.766C303.556,109.139,300.167,105.179,292.046,105.179z"/>
	<path style="fill-rule:evenodd;clip-rule:evenodd;" d="M0,0v455h455V0H0z M336.658,120.727c-9.287,45.006-18.655,90-28.022,134.983
		c-0.606,2.86-1.301,5.72-2.197,8.492c-4.308,13.27-12.845,19.574-26.845,19.666c-15.884,0.089-31.767,0.089-47.654-0.034
		c-2.984-0.023-5.114,0.864-7.044,3.13c-11.992,14.066-24.062,28.066-36.109,42.088c-14.37,16.725-28.694,33.461-43.122,50.121
		c-4.566,5.272-13.483,7.28-20.237,4.724c-7.099-2.694-10.106-8.337-10.757-15.536c-0.101-1.146-0.066-2.3-0.066-3.446
		c0-88.619-0.023-177.238,0.023-265.86c0-11.329,4.621-20.18,14.784-25.756c3.254-1.795,6.909-2.298,10.41-3.297h178.137
		c2.335,0.528,4.701,0.93,6.99,1.625c8.805,2.659,13.977,9.301,15.111,18.442C341.348,100.59,338.746,110.621,336.658,120.727z"/>
</g>
<g>
</g>
<g>
</g>
<g>
</g>
<g>
</g>
<g>
</g>
<g>
</g>
<g>
</g>
<g>
</g>
<g>
</g>
<g>
</g>
<g>
</g>
<g>
</g>
<g>
</g>
<g>
</g>
<g>
</g>
</svg>
