<?xml version="1.0" encoding="iso-8859-1"?>
<!-- Generator: Adobe Illustrator 19.0.0, SVG Export Plug-In . SVG Version: 6.00 Build 0)  -->
<svg version="1.1" id="Layer_1" xmlns="http://www.w3.org/2000/svg" xmlns:xlink="http://www.w3.org/1999/xlink" x="0px" y="0px"
	 viewBox="0 0 455 455" style="enable-background:new 0 0 455 455;" xml:space="preserve">
<path style="fill-rule:evenodd;clip-rule:evenodd;" d="M0,0v455h455V0H0z M227.5,385c-2.515,0-5.011-0.067-7.503-0.184
	C136.496,380.902,70,311.968,70,227.5C70,140.512,140.516,70,227.5,70c0.2,0,0.396,0.008,0.596,0.008
	c40.097,0.149,76.652,15.28,104.38,40.085c-18.466-12.252-40.054-19.296-63.127-19.296c-37.507,0-71.096,18.606-93.691,47.948
	c-17.412,20.554-28.692,50.946-29.46,85.048v7.417c0.768,34.102,12.048,64.49,29.463,85.048
	c22.591,29.342,56.18,47.948,93.687,47.948c23.069,0,44.654-7.044,63.115-19.288C304.599,369.837,267.824,385,227.5,385z
	 M339.288,338.423c-16.125,9.59-34.185,14.65-52.565,14.65c-15.801,0-31.205-3.735-45.321-10.724
	c40.051-8.273,70.786-56.539,70.786-114.849c0-58.307-30.732-106.572-70.78-114.848c14.115-6.986,29.518-10.721,45.316-10.721
	c18.385,0,36.447,5.06,52.571,14.653C367.536,145.048,385,184.231,385,227.5C385,270.771,367.534,309.956,339.288,338.423z"/>
<g>
</g>
<g>
</g>
<g>
</g>
<g>
</g>
<g>
</g>
<g>
</g>
<g>
</g>
<g>
</g>
<g>
</g>
<g>
</g>
<g>
</g>
<g>
</g>
<g>
</g>
<g>
</g>
<g>
</g>
</svg>
