<?xml version="1.0" encoding="iso-8859-1"?>
<!-- Generator: Adobe Illustrator 19.0.0, SVG Export Plug-In . SVG Version: 6.00 Build 0)  -->
<svg version="1.1" id="Layer_1" xmlns="http://www.w3.org/2000/svg" xmlns:xlink="http://www.w3.org/1999/xlink" x="0px" y="0px"
	 viewBox="0 0 455 455" style="enable-background:new 0 0 455 455;" xml:space="preserve">
<path style="fill-rule:evenodd;clip-rule:evenodd;" d="M0,0v455h455V0H0z M227.51,159.876c-9.211,0-16.68,7.449-16.68,16.66V278.46
	c0,38.89-31.533,70.411-70.423,70.411C101.517,348.871,70,317.35,70,278.46v-46.322h53.743v44.467c0,9.215,7.453,16.68,16.664,16.68
	c9.211,0,16.68-7.465,16.68-16.68V176.536c0-38.89,31.534-70.407,70.423-70.407c38.89,0,70.407,31.517,70.407,70.407v20.39
	l-29.57,10.185l-24.177-10.185v-20.39C244.17,167.324,236.721,159.876,227.51,159.876z M385,278.46
	c0,38.89-31.517,70.411-70.407,70.411c-38.89,0-70.423-31.521-70.423-70.411v-45.396l24.177,10.185l29.57-10.185v45.396
	c0,9.199,7.465,16.664,16.676,16.664s16.68-7.465,16.68-16.664v-44.467H385V278.46z"/>
<g>
</g>
<g>
</g>
<g>
</g>
<g>
</g>
<g>
</g>
<g>
</g>
<g>
</g>
<g>
</g>
<g>
</g>
<g>
</g>
<g>
</g>
<g>
</g>
<g>
</g>
<g>
</g>
<g>
</g>
</svg>
