<?xml version="1.0" encoding="iso-8859-1"?>
<!-- Generator: Adobe Illustrator 19.0.0, SVG Export Plug-In . SVG Version: 6.00 Build 0)  -->
<svg version="1.1" id="Layer_1" xmlns="http://www.w3.org/2000/svg" xmlns:xlink="http://www.w3.org/1999/xlink" x="0px" y="0px"
	 viewBox="0 0 455 455" style="enable-background:new 0 0 455 455;" xml:space="preserve">
<g>
	<path style="fill-rule:evenodd;clip-rule:evenodd;" d="M227.493,155.737c-52.134,0-94.407,26.549-94.407,59.299
		c0,32.739,42.272,59.287,94.407,59.287c52.137,0,94.409-26.547,94.409-59.287C321.903,182.286,279.63,155.737,227.493,155.737z"/>
	<path style="fill-rule:evenodd;clip-rule:evenodd;" d="M0,0v455h455V0H0z M227.493,339.916c-15.91,0-31.267-1.89-45.747-5.367
		l-78.799,30.307l19.678-56.667C90.336,285.317,70,252.065,70,215.036c0-68.977,70.511-124.893,157.493-124.893
		C314.478,90.144,385,146.06,385,215.036C385,284,314.478,339.916,227.493,339.916z"/>
</g>
<g>
</g>
<g>
</g>
<g>
</g>
<g>
</g>
<g>
</g>
<g>
</g>
<g>
</g>
<g>
</g>
<g>
</g>
<g>
</g>
<g>
</g>
<g>
</g>
<g>
</g>
<g>
</g>
<g>
</g>
</svg>
