<?xml version="1.0" encoding="iso-8859-1"?>
<!-- Generator: Adobe Illustrator 19.0.0, SVG Export Plug-In . SVG Version: 6.00 Build 0)  -->
<svg version="1.1" id="Layer_1" xmlns="http://www.w3.org/2000/svg" xmlns:xlink="http://www.w3.org/1999/xlink" x="0px" y="0px"
	 viewBox="0 0 455 455" style="enable-background:new 0 0 455 455;" xml:space="preserve">
<path style="fill-rule:evenodd;clip-rule:evenodd;" d="M0,0v455h455V0H0z M323.532,367.49
	c-11.723,6.271-23.901,10.784-36.565,13.511c-10.784,2.697-22.479,3.999-35.141,3.999c-10.905,0-23.447-1.758-37.868-5.302
	c-11.725-4.513-20.721-9.936-26.993-16.207c-8.179-7.362-13.602-14.451-16.207-21.66c-3.666-9.118-5.453-19.904-5.453-32.446
	V199.812h-33.839v-44.595c10.875-3.695,21.175-9.481,31.111-17.661c9.938-8.028,17.177-17.025,21.66-26.962
	c3.545-8.179,7.21-21.659,10.785-40.594h42.957v81.31h72.767v48.502h-72.767v79.765c0,18.115,1.635,29.809,4.362,35.262
	c0.939,4.484,4.15,8.513,9.483,12.179c9.089,4.393,17.146,6.634,24.356,6.634c15.268,0,31.143-5.332,47.349-16.208V367.49z"/>
<g>
</g>
<g>
</g>
<g>
</g>
<g>
</g>
<g>
</g>
<g>
</g>
<g>
</g>
<g>
</g>
<g>
</g>
<g>
</g>
<g>
</g>
<g>
</g>
<g>
</g>
<g>
</g>
<g>
</g>
</svg>
