<?xml version="1.0" encoding="iso-8859-1"?>
<!-- Generator: Adobe Illustrator 19.0.0, SVG Export Plug-In . SVG Version: 6.00 Build 0)  -->
<svg version="1.1" id="Layer_1" xmlns="http://www.w3.org/2000/svg" xmlns:xlink="http://www.w3.org/1999/xlink" x="0px" y="0px"
	 viewBox="0 0 455 455" style="enable-background:new 0 0 455 455;" xml:space="preserve">
<path style="fill-rule:evenodd;clip-rule:evenodd;" d="M0,0v455h455V0H0z M70,227.504c0-22.844,4.885-44.509,13.634-64.101
	l75.155,205.796C106.223,343.707,70,289.796,70,227.504z M227.521,385c-15.476,0-30.394-2.264-44.507-6.398l47.277-137.315
	l48.414,132.605c0.306,0.804,0.69,1.477,1.11,2.15C263.438,381.81,245.847,385,227.521,385z M249.205,153.676
	c9.524-0.523,18.019-1.503,18.019-1.503c8.495-1.034,7.498-13.477-0.98-12.995c0,0-25.534,2.018-41.99,2.018
	c-15.478,0-41.468-2.018-41.468-2.018c-8.502-0.481-9.499,12.479-1.023,12.995c0,0,8.04,0.98,16.517,1.503l24.549,67.212
	l-34.468,103.357l-57.372-170.57c9.534-0.523,18.029-1.503,18.029-1.503c8.502-1.034,7.504-13.477-0.955-12.995
	c0,0-25.533,2.018-42.014,2.018c-2.956,0-6.435-0.077-10.13-0.209C124.068,98.245,172.48,70,227.521,70
	c41.013,0,78.328,15.694,106.338,41.379c-0.672-0.06-1.346-0.139-2.018-0.139c-15.496,0-26.453,13.458-26.453,27.938
	c0,12.995,7.48,23.954,15.458,36.932c5.979,10.478,12.978,23.979,12.978,43.451c0,13.475-4.002,30.437-11.98,50.895l-15.705,52.481
	L249.205,153.676z M306.715,363.624l48.082-139.083c8.995-22.476,11.999-40.428,11.999-56.392c0-5.805-0.402-11.169-1.075-16.222
	C378.025,174.38,385,200.106,385,227.504C385,285.602,353.512,336.323,306.715,363.624z"/>
<g>
</g>
<g>
</g>
<g>
</g>
<g>
</g>
<g>
</g>
<g>
</g>
<g>
</g>
<g>
</g>
<g>
</g>
<g>
</g>
<g>
</g>
<g>
</g>
<g>
</g>
<g>
</g>
<g>
</g>
</svg>
