<?xml version="1.0" encoding="iso-8859-1"?>
<!-- Generator: Adobe Illustrator 19.0.0, SVG Export Plug-In . SVG Version: 6.00 Build 0)  -->
<svg version="1.1" id="Layer_1" xmlns="http://www.w3.org/2000/svg" xmlns:xlink="http://www.w3.org/1999/xlink" x="0px" y="0px"
	 viewBox="0 0 455 455" style="enable-background:new 0 0 455 455;" xml:space="preserve">
<g>
	<path style="fill-rule:evenodd;clip-rule:evenodd;" d="M227.5,184.411c-55.362,0-100.251,32.157-100.251,71.779
		c0,39.691,44.889,71.899,100.251,71.899c55.375,0,100.262-32.247,100.262-71.899C327.763,216.568,282.875,184.411,227.5,184.411z
		 M227.5,303.717c-36.593,0.052-66.283-21.211-66.283-47.526c0-26.221,29.69-47.445,66.283-47.445
		c36.605,0,66.201,21.224,66.201,47.445C293.702,282.519,264.106,303.717,227.5,303.717z"/>
	<path style="fill-rule:evenodd;clip-rule:evenodd;" d="M0,0v455h455V0H0z M227.5,364.025c-85.508,0-154.914-46.673-157.224-104.827
		H70V90.975h57.25v82.082c27.3-15.381,62.227-24.62,100.251-24.62c87.019,0,157.5,48.272,157.5,107.715
		C385,315.699,314.52,364.025,227.5,364.025z"/>
</g>
<g>
</g>
<g>
</g>
<g>
</g>
<g>
</g>
<g>
</g>
<g>
</g>
<g>
</g>
<g>
</g>
<g>
</g>
<g>
</g>
<g>
</g>
<g>
</g>
<g>
</g>
<g>
</g>
<g>
</g>
</svg>
