<?xml version="1.0" encoding="iso-8859-1"?>
<!-- Generator: Adobe Illustrator 19.0.0, SVG Export Plug-In . SVG Version: 6.00 Build 0)  -->
<svg version="1.1" id="Layer_1" xmlns="http://www.w3.org/2000/svg" xmlns:xlink="http://www.w3.org/1999/xlink" x="0px" y="0px"
	 viewBox="0 0 455 455" style="enable-background:new 0 0 455 455;" xml:space="preserve">
<g>
	<rect x="241.496" y="199.498" style="fill-rule:evenodd;clip-rule:evenodd;" width="21.004" height="56.004"/>
	<rect x="332.5" y="199.498" style="fill-rule:evenodd;clip-rule:evenodd;" width="24.509" height="56.004"/>
	<rect x="101.496" y="199.498" style="fill-rule:evenodd;clip-rule:evenodd;" width="24.509" height="56.004"/>
	<path style="fill-rule:evenodd;clip-rule:evenodd;" d="M0,0v455h455V0H0z M157.5,283.493H70V171.507h56.004v-56.004H157.5V283.493z
		 M196.004,283.493h-31.496V171.507h31.496V283.493z M196.004,146.998h-31.496v-31.495h31.496V146.998z M293.996,339.498H210
		v-31.496h52.5v-24.509H210V171.507h83.996V339.498z M385,339.498h-83.996v-31.496h56.004v-24.509h-56.004V171.507H385V339.498z"/>
</g>
<g>
</g>
<g>
</g>
<g>
</g>
<g>
</g>
<g>
</g>
<g>
</g>
<g>
</g>
<g>
</g>
<g>
</g>
<g>
</g>
<g>
</g>
<g>
</g>
<g>
</g>
<g>
</g>
<g>
</g>
</svg>
