<?xml version="1.0" encoding="iso-8859-1"?>
<!-- Generator: Adobe Illustrator 19.0.0, SVG Export Plug-In . SVG Version: 6.00 Build 0)  -->
<svg version="1.1" id="Layer_1" xmlns="http://www.w3.org/2000/svg" xmlns:xlink="http://www.w3.org/1999/xlink" x="0px" y="0px"
	 viewBox="0 0 455 455" style="enable-background:new 0 0 455 455;" xml:space="preserve">
<g>
	<path style="fill-rule:evenodd;clip-rule:evenodd;" d="M163.193,320.694c18.207,12.693,40.352,20.19,64.229,20.19
		c12.064,0,23.372-2.456,34.334-5.922c-1.952-26.554-7.15-52.762-15.024-77.993C213.656,268.781,184.362,290.674,163.193,320.694z"
		/>
	<path style="fill-rule:evenodd;clip-rule:evenodd;" d="M238.258,233.344c-2.71-6.898-5.545-13.42-8.726-20.066
		c-25.105,11.089-52.322,17.23-80.23,17.23c-11.687,0-23.499-1.479-35.186-3.087c0,29.673,11.561,56.354,30.146,76.546
		C168.485,270.734,201.214,246.511,238.258,233.344z"/>
	<path style="fill-rule:evenodd;clip-rule:evenodd;" d="M290.169,133.047c-17.955-11.938-39.469-18.932-62.747-18.932
		c-10.333,0-20.066,1.827-29.643,4.41c16.223,18.838,30.619,39.123,42.683,60.795C259.552,167.508,276.403,152.011,290.169,133.047z
		"/>
	<path style="fill-rule:evenodd;clip-rule:evenodd;" d="M217.941,190.756c-12.537-22.271-27.437-43.188-44.667-62.245
		c-27.784,15.247-48.574,41.58-55.976,73.333C151.885,208.238,186.818,204.174,217.941,190.756z"/>
	<path style="fill-rule:evenodd;clip-rule:evenodd;" d="M270.986,250.07c7.497,24.129,12.443,48.856,14.9,74.087
		c26.555-16.128,46.242-42.588,52.668-73.962C315.779,245.754,292.878,245.628,270.986,250.07z"/>
	<path style="fill-rule:evenodd;clip-rule:evenodd;" d="M251.929,201.717c3.812,8.002,7.244,16.128,10.458,24.35
		c25.325-5.639,51.785-5.764,78.246-1.103c-0.631-29.169-12.443-55.629-31.122-75.411
		C293.509,170.942,273.947,188.55,251.929,201.717z"/>
	<path style="fill-rule:evenodd;clip-rule:evenodd;" d="M0,0v455h455V0H0z M227.422,366.116
		c-76.42,0-138.538-62.276-138.538-138.695S151.002,88.884,227.422,88.884c76.418,0,138.694,62.118,138.694,138.537
		S303.84,366.116,227.422,366.116z"/>
</g>
<g>
</g>
<g>
</g>
<g>
</g>
<g>
</g>
<g>
</g>
<g>
</g>
<g>
</g>
<g>
</g>
<g>
</g>
<g>
</g>
<g>
</g>
<g>
</g>
<g>
</g>
<g>
</g>
<g>
</g>
</svg>
