<?xml version="1.0" encoding="iso-8859-1"?>
<!-- Generator: Adobe Illustrator 19.0.0, SVG Export Plug-In . SVG Version: 6.00 Build 0)  -->
<svg version="1.1" id="Layer_1" xmlns="http://www.w3.org/2000/svg" xmlns:xlink="http://www.w3.org/1999/xlink" x="0px" y="0px"
	 viewBox="0 0 455 455" style="enable-background:new 0 0 455 455;" xml:space="preserve">
<g>
	<path style="fill-rule:evenodd;clip-rule:evenodd;" d="M227.944,102.13c-69.241,0-125.363,56.125-125.363,125.366
		c0,3.053,0.114,6.077,0.331,9.07c0.681,9.202,4.564,18.086,11.667,23.986c4.007,3.334,8.603,5.518,13.74,5.518
		c21.574,0,50.044-28.934,50.044-67.044c0-38.11-3.673-52.345-3.673-52.345s50.055,2.754,87.253,44.993
		c37.19,42.252,34.9,72.098,56.933,72.098c10.954,0,20.427-6.583,26.959-17.816c5.974-10.26,7.93-22.396,6.459-34.177
		C344.561,149.962,291.844,102.13,227.944,102.13z"/>
	<path style="fill-rule:evenodd;clip-rule:evenodd;" d="M0,0v455h455V0H0z M227.499,385.005C140.513,385.005,70,314.481,70,227.496
		c0-86.988,70.513-157.501,157.499-157.501C314.487,69.995,385,140.508,385,227.496C385,314.481,314.487,385.005,227.499,385.005z"
		/>
</g>
<g>
</g>
<g>
</g>
<g>
</g>
<g>
</g>
<g>
</g>
<g>
</g>
<g>
</g>
<g>
</g>
<g>
</g>
<g>
</g>
<g>
</g>
<g>
</g>
<g>
</g>
<g>
</g>
<g>
</g>
</svg>
