<?xml version="1.0" encoding="iso-8859-1"?>
<!-- Generator: Adobe Illustrator 19.0.0, SVG Export Plug-In . SVG Version: 6.00 Build 0)  -->
<svg version="1.1" id="Layer_1" xmlns="http://www.w3.org/2000/svg" xmlns:xlink="http://www.w3.org/1999/xlink" x="0px" y="0px"
	 viewBox="0 0 455 455" style="enable-background:new 0 0 455 455;" xml:space="preserve">
<g>
	<path style="fill-rule:evenodd;clip-rule:evenodd;" d="M268.769,306.818l50.575,10.875l-10.874-50.586l-10.602-44.864
		c0.043-0.022-0.011-0.086-0.011-0.086L178.027,102.34c-33.126,14.218-59.977,40.248-75.28,72.787l121.135,121.132L268.769,306.818z
		 M292.327,229.465l7.897,34.674c-14.714,7.363-27.06,19.708-34.421,34.432l-34.674-7.896
		C243.601,263.488,265.14,241.95,292.327,229.465z"/>
	<path style="fill-rule:evenodd;clip-rule:evenodd;" d="M0,0v455h455V0H0z M236.071,385c-81.348,0-147.288-65.94-147.288-147.277
		c0-22.392,5.027-43.594,13.965-62.596l-31.096-31.088C90.255,113.949,115.601,88.604,145.69,70l32.337,32.34
		c17.818-7.646,37.431-11.895,58.043-11.895c81.337,0,147.277,65.94,147.277,147.277S317.408,385,236.071,385z"/>
</g>
<g>
</g>
<g>
</g>
<g>
</g>
<g>
</g>
<g>
</g>
<g>
</g>
<g>
</g>
<g>
</g>
<g>
</g>
<g>
</g>
<g>
</g>
<g>
</g>
<g>
</g>
<g>
</g>
<g>
</g>
</svg>
