<?xml version="1.0" encoding="iso-8859-1"?>
<!-- Generator: Adobe Illustrator 19.0.0, SVG Export Plug-In . SVG Version: 6.00 Build 0)  -->
<svg version="1.1" id="Layer_1" xmlns="http://www.w3.org/2000/svg" xmlns:xlink="http://www.w3.org/1999/xlink" x="0px" y="0px"
	 viewBox="0 0 455 455" style="enable-background:new 0 0 455 455;" xml:space="preserve">
<path style="fill-rule:evenodd;clip-rule:evenodd;" d="M0,0v455h455V0H0z M300.603,70c25.684,0,46.533,20.865,46.533,46.534
	c0,25.685-20.849,46.534-46.533,46.534c-25.669,0-46.534-20.849-46.534-46.534C254.069,90.865,274.934,70,300.603,70z
	 M203.02,82.217c18.943,0,34.317,15.374,34.317,34.317c0,18.943-15.374,34.317-34.317,34.317c-18.943,0-34.317-15.374-34.317-34.317
	C168.703,97.591,184.078,82.217,203.02,82.217z M123.725,94.434c15.542,0,28.171,12.628,28.171,28.247
	c0,15.542-12.629,28.17-28.171,28.17c-15.618,0-28.247-12.628-28.247-28.17C95.478,107.063,108.107,94.434,123.725,94.434z
	 M373.828,385H227.622v-61.191l-73.041-0.183v-36.452H81.172v-80.79c0-4.774,5.735-40.403,42.553-40.403
	c29.726,0,37.703,20.926,40.037,28.964c11.012-10.555,24.007-16.381,41.455-16.381c17.524,0,37.123,13.102,46.595,29.482
	c10.127-7.626,22.878-17.509,54.159-17.509c45.33,0,67.857,42.538,67.857,64.638C373.828,272.333,373.828,385,373.828,385z"/>
<g>
</g>
<g>
</g>
<g>
</g>
<g>
</g>
<g>
</g>
<g>
</g>
<g>
</g>
<g>
</g>
<g>
</g>
<g>
</g>
<g>
</g>
<g>
</g>
<g>
</g>
<g>
</g>
<g>
</g>
</svg>
