<?xml version="1.0" encoding="iso-8859-1"?>
<!-- Generator: Adobe Illustrator 19.0.0, SVG Export Plug-In . SVG Version: 6.00 Build 0)  -->
<svg version="1.1" id="Layer_1" xmlns="http://www.w3.org/2000/svg" xmlns:xlink="http://www.w3.org/1999/xlink" x="0px" y="0px"
	 viewBox="0 0 455 455" style="enable-background:new 0 0 455 455;" xml:space="preserve">
<path style="fill-rule:evenodd;clip-rule:evenodd;" d="M0,0v455h455V0H0z M227.5,70c20.887,0,40.822,4.077,59.063,11.46v109.82
	L174.448,79.168C191.028,73.238,208.884,70,227.5,70z M70,227.5c0-59.49,32.985-111.265,81.656-138.061l49.468,49.469
	L74.608,265.423C71.604,253.274,70,240.577,70,227.5z M148.748,363.923c-29.097-16.834-52.303-42.711-65.788-73.789l65.788-65.792
	V363.923z M227.5,385c-20.89,0-40.822-4.077-59.063-11.461v-67.291h195.486C336.688,353.325,285.794,385,227.5,385z
	 M373.539,286.563h-67.291V91.076C353.325,118.308,385,169.203,385,227.5C385,248.387,380.923,268.322,373.539,286.563z"/>
<g>
</g>
<g>
</g>
<g>
</g>
<g>
</g>
<g>
</g>
<g>
</g>
<g>
</g>
<g>
</g>
<g>
</g>
<g>
</g>
<g>
</g>
<g>
</g>
<g>
</g>
<g>
</g>
<g>
</g>
</svg>
