<?xml version="1.0" encoding="iso-8859-1"?>
<!-- Generator: Adobe Illustrator 19.0.0, SVG Export Plug-In . SVG Version: 6.00 Build 0)  -->
<svg version="1.1" id="Layer_1" xmlns="http://www.w3.org/2000/svg" xmlns:xlink="http://www.w3.org/1999/xlink" x="0px" y="0px"
	 viewBox="0 0 455 455" style="enable-background:new 0 0 455 455;" xml:space="preserve">
<path style="fill-rule:evenodd;clip-rule:evenodd;" d="M0,0v455h455V0H0z M74.827,276.849c-0.105,0.722-0.622,1.224-1.26,1.224
	c-0.657,0-1.176-0.506-1.263-1.231L70,259.647l2.303-17.494c0.087-0.724,0.606-1.232,1.263-1.232c0.639,0,1.157,0.504,1.26,1.226
	l2.728,17.5L74.827,276.849z M86.52,287.317c-0.106,0.747-0.643,1.27-1.307,1.27c-0.669,0-1.22-0.536-1.31-1.277l-3.097-27.663
	c0,0,3.097-28.284,3.097-28.287c0.09-0.738,0.641-1.273,1.31-1.273c0.664,0,1.201,0.521,1.308,1.272l3.524,28.289L86.52,287.317z
	 M99.164,291.995c-0.097,0.893-0.76,1.542-1.576,1.542c-0.832,0-1.496-0.649-1.58-1.548l-2.939-32.338
	c0,0,2.939-33.561,2.939-33.564c0.083-0.896,0.747-1.546,1.58-1.546c0.817,0,1.479,0.648,1.578,1.545l3.339,33.565L99.164,291.995z
	 M111.91,293.021c-0.088,1.031-0.882,1.812-1.845,1.812c-0.976,0-1.772-0.781-1.85-1.812l-2.779-33.364l2.779-34.487
	c0.078-1.035,0.873-1.816,1.85-1.816c0.964,0,1.758,0.779,1.845,1.81l3.157,34.493L111.91,293.021z M124.757,293.297
	c-0.083,1.187-0.992,2.086-2.116,2.086c-1.135,0-2.045-0.899-2.115-2.084l-2.623-33.638l2.623-31.99
	c0.071-1.191,0.98-2.089,2.115-2.089c1.125,0,2.035,0.897,2.116,2.076l2.972,32.003L124.757,293.297z M137.705,293.301
	c-0.075,1.32-1.122,2.359-2.384,2.359c-1.272,0-2.321-1.039-2.385-2.352l-2.463-33.635c0,0,2.463-52.047,2.463-52.048
	c0.064-1.323,1.113-2.361,2.385-2.361c1.262,0,2.309,1.035,2.384,2.358l2.786,52.05
	C140.491,259.673,137.705,293.311,137.705,293.301z M150.558,293.268c-0.068,1.475-1.234,2.63-2.652,2.63
	c-1.429,0-2.594-1.154-2.654-2.617l-2.305-33.426c0,0,2.302-63.947,2.302-63.951c0.062-1.476,1.228-2.63,2.657-2.63
	c1.419,0,2.584,1.155,2.652,2.63l2.604,63.951C153.162,259.855,150.556,293.287,150.558,293.268z M163.905,292.755
	c-0.065,1.628-1.348,2.898-2.923,2.898c-1.584,0-2.868-1.274-2.923-2.885l-2.145-33.082c0,0,2.144-69.286,2.144-69.288
	c0.057-1.627,1.34-2.903,2.924-2.903c1.575,0,2.858,1.274,2.923,2.902l2.419,69.289
	C166.324,259.687,163.904,292.775,163.905,292.755z M177.156,292.553c-0.058,1.775-1.457,3.167-3.19,3.167
	c-1.739,0-3.141-1.392-3.191-3.152l-1.987-32.877l1.985-71.621c0.051-1.78,1.453-3.174,3.192-3.174c1.734,0,3.134,1.393,3.191,3.172
	l2.237,71.626L177.156,292.553z M190.51,292.243c-0.052,1.929-1.57,3.444-3.459,3.444c-1.897,0-3.417-1.516-3.46-3.428
	l-1.828-32.562l1.826-69.795c0.044-1.93,1.565-3.442,3.462-3.442c1.889,0,3.407,1.51,3.459,3.438l2.053,69.799
	C192.563,259.697,190.51,292.266,190.51,292.243z M203.966,292.034c-0.045,2.084-1.683,3.712-3.728,3.712
	c-2.051,0-3.69-1.628-3.728-3.689l-1.668-32.357l1.667-67.246c0.04-2.083,1.679-3.715,3.73-3.715c2.045,0,3.683,1.631,3.728,3.708
	l1.868,67.257C205.834,259.703,203.966,292.061,203.966,292.034z M217.69,288.655l-0.167,3.179
	c-0.021,1.096-0.478,2.091-1.201,2.811c-0.724,0.721-1.714,1.168-2.798,1.168c-1.22,0-2.322-0.565-3.058-1.447
	c-0.545-0.652-0.885-1.479-0.931-2.377c-0.002-0.045-0.008-0.09-0.009-0.136c0,0-1.509-32.121-1.509-32.169l1.495-79.245
	l0.014-0.755c0.022-1.396,0.756-2.625,1.844-3.337c0.624-0.408,1.363-0.648,2.153-0.648c0.813,0,1.573,0.251,2.209,0.682
	c1.057,0.716,1.766,1.928,1.79,3.3l1.684,80.028L217.69,288.655z M231.019,291.359c-0.032,2.346-1.946,4.255-4.263,4.255
	c-2.325,0-4.238-1.909-4.269-4.221l-0.862-15.622l-0.888-16.053l1.74-86.842l0.009-0.439c0.018-1.319,0.631-2.501,1.577-3.282
	c0.737-0.608,1.675-0.974,2.692-0.974c0.791,0,1.532,0.226,2.17,0.613c1.231,0.745,2.071,2.095,2.093,3.636
	c0,0,1.899,87.287,1.899,87.288C232.918,259.717,231.019,291.396,231.019,291.359z M346.258,295.703c0,0-107.299,0.01-107.398,0
	c-2.315-0.232-4.154-2.074-4.185-4.446c0,0,0-122.968,0-122.97c0.028-2.261,0.804-3.422,3.729-4.556
	c7.526-2.911,16.045-4.63,24.786-4.63c35.718,0,64.999,27.392,68.082,62.308c4.612-1.932,9.678-3.008,14.986-3.008
	c21.397,0,38.742,17.347,38.742,38.747C385,278.55,367.655,295.703,346.258,295.703z"/>
<g>
</g>
<g>
</g>
<g>
</g>
<g>
</g>
<g>
</g>
<g>
</g>
<g>
</g>
<g>
</g>
<g>
</g>
<g>
</g>
<g>
</g>
<g>
</g>
<g>
</g>
<g>
</g>
<g>
</g>
</svg>
