<?xml version="1.0" encoding="iso-8859-1"?>
<!-- Generator: Adobe Illustrator 19.0.0, SVG Export Plug-In . SVG Version: 6.00 Build 0)  -->
<svg version="1.1" id="Layer_1" xmlns="http://www.w3.org/2000/svg" xmlns:xlink="http://www.w3.org/1999/xlink" x="0px" y="0px"
	 viewBox="0 0 455 455" style="enable-background:new 0 0 455 455;" xml:space="preserve">
<path style="fill-rule:evenodd;clip-rule:evenodd;" d="M0,0v455h455V0H0z M375.918,337.361c-12.346,36.714-42.54,51.92-78.29,37.357
	c-51.488-20.973-95.867-49.188-132.199-85.521c-36.332-36.332-64.548-80.711-85.521-132.199
	c-14.563-35.75,0.643-65.944,37.357-78.29c6.591-2.216,13.043-2.371,19.522,0.014c15.657,5.759,55.305,60.331,56.194,76.66
	c0.681,12.523-7.829,19.306-16.274,25.037c-15.953,10.837-16.042,24.576-9.225,39.898c6.862,15.419,15.662,28.91,26.79,40.037
	c11.127,11.128,24.618,19.928,40.037,26.79c15.323,6.818,29.061,6.729,39.899-9.224c5.731-8.446,12.513-16.956,25.037-16.275
	c16.329,0.889,70.901,40.537,76.661,56.194C378.288,324.318,378.134,330.77,375.918,337.361z M324.334,196.112
	c-1.376-15.859-8.757-31.218-20.785-43.245c-12.579-12.58-28.911-20.324-45.987-21.804c-4.699-0.407-9.41-0.316-13.997,0.269
	c-5.737,0.73-11.012-3.331-11.746-9.084c-0.735-5.752,3.332-11.011,9.084-11.747c6.068-0.774,12.283-0.895,18.474-0.36
	c21.993,1.907,42.954,11.808,59.022,27.877c15.517,15.516,25.055,35.503,26.857,56.281c0.499,5.769,0.387,11.572-0.335,17.25
	c-0.674,5.303-5.193,9.177-10.402,9.178c-0.442,0-0.888-0.028-1.337-0.084c-5.753-0.731-9.824-5.987-9.093-11.74
	C324.622,204.7,324.705,200.396,324.334,196.112z M289.465,199.135c-1.429-16.48-17.423-31.686-34.926-33.203
	c-1.393-0.121-2.778-0.154-4.117-0.099c-5.787,0.231-10.685-4.264-10.924-10.058s4.264-10.685,10.059-10.924
	c2.229-0.09,4.514-0.038,6.796,0.159c27.967,2.424,51.701,25.402,54.034,52.312c0.213,2.461,0.238,4.925,0.074,7.327
	c-0.377,5.542-4.991,9.787-10.465,9.787c-0.24,0-0.481-0.008-0.724-0.025c-5.786-0.394-10.157-5.403-9.763-11.189
	C289.599,201.896,289.585,200.521,289.465,199.135z M378.864,221.167c-0.887,5.105-5.322,8.705-10.332,8.705
	c-0.597,0-1.201-0.051-1.81-0.157c-5.713-0.992-9.541-6.428-8.548-12.142c1.395-8.029,1.74-16.267,1.028-24.484
	c-2.086-24.054-13.062-47.128-30.905-64.971c-18.396-18.396-42.444-29.734-67.715-31.924c-8.2-0.713-16.417-0.429-24.42,0.841
	c-5.733,0.908-11.106-2.999-12.015-8.725c-0.908-5.728,2.999-11.107,8.726-12.016c9.687-1.537,19.62-1.88,29.523-1.022
	c30.187,2.617,58.864,16.111,80.75,37.997c21.333,21.333,34.465,49.037,36.978,78.007
	C380.993,201.298,380.569,211.354,378.864,221.167z"/>
<g>
</g>
<g>
</g>
<g>
</g>
<g>
</g>
<g>
</g>
<g>
</g>
<g>
</g>
<g>
</g>
<g>
</g>
<g>
</g>
<g>
</g>
<g>
</g>
<g>
</g>
<g>
</g>
<g>
</g>
</svg>
