<?xml version="1.0" encoding="iso-8859-1"?>
<!-- Generator: Adobe Illustrator 19.0.0, SVG Export Plug-In . SVG Version: 6.00 Build 0)  -->
<svg version="1.1" id="Layer_1" xmlns="http://www.w3.org/2000/svg" xmlns:xlink="http://www.w3.org/1999/xlink" x="0px" y="0px"
	 viewBox="0 0 455 455" style="enable-background:new 0 0 455 455;" xml:space="preserve">
<path style="fill-rule:evenodd;clip-rule:evenodd;" d="M0,0v455h455V0H0z M323.733,179.725c-7.709,2.083-78.238,56.77-82.884,70.188
	c-1.028,4.629,0.101,49.577,1.129,56.311c4.646,1.041,38.194,0.136,44.345,1.159l-0.735,13.895
	c-6.033-0.459-48.654-0.341-72.971-0.341c-12.373,0-52.106,1.352-64.313,1.006l2.31-13.226c6.698-0.494,34.418,1.229,40.486-5.246
	c3.023-3.216,2.065-45.938,1.041-53.152c-2.564-7.722-64.36-85.172-80.509-97.855H70V133h140.376v1.352
	c0.118,0,0.359,0.013,0.477,0.031l-0.477,3.299v14.783h-42.333c18.869,27.602,45.92,60.909,57.457,76.904l56.551-51.236h-33.617
	l-4.734-19.447h123.117l-0.906,1.383c0.101,0,0.289,0.018,0.424,0.018l-8.781,12.766c-0.088,0-0.223,0.018-0.293,0.035l-3.535,5.246
	h-22.715C328.073,178.785,325.478,179.366,323.733,179.725z M360.885,321.996l-10.303-0.752l-9.573-0.836l-0.101-20.781
	l12.132,1.488l10.854,0.529L360.885,321.996z M363.038,287.477l-18.883-1.522l-0.512-87.824c4.34,0.853,37.682,4.016,41.357,4.134
	L363.038,287.477z"/>
<g>
</g>
<g>
</g>
<g>
</g>
<g>
</g>
<g>
</g>
<g>
</g>
<g>
</g>
<g>
</g>
<g>
</g>
<g>
</g>
<g>
</g>
<g>
</g>
<g>
</g>
<g>
</g>
<g>
</g>
</svg>
