<?xml version="1.0" encoding="iso-8859-1"?>
<!-- Generator: Adobe Illustrator 19.0.0, SVG Export Plug-In . SVG Version: 6.00 Build 0)  -->
<svg version="1.1" id="Layer_1" xmlns="http://www.w3.org/2000/svg" xmlns:xlink="http://www.w3.org/1999/xlink" x="0px" y="0px"
	 viewBox="0 0 455 455" style="enable-background:new 0 0 455 455;" xml:space="preserve">
<g>
	<path style="fill-rule:evenodd;clip-rule:evenodd;" d="M239.617,96.701c-4.959,0.81-40.899,8.884-40.899,71.393
		c0,28.536,7.16,45.725,15.384,56.06c7.921,9.948,20.203,15.413,32.918,15.413h22.249V96.62h-28.596
		C240.318,96.62,239.973,96.641,239.617,96.701z"/>
	<path style="fill-rule:evenodd;clip-rule:evenodd;" d="M0,0v455h455V0H0z M303.619,385h-33.414V267.415h-23.518L193.466,385
		h-42.085l66.839-120.68c0,0-56.312-25.99-56.312-90.354C161.908,109.611,206.782,70,244.446,70h59.173V385z"/>
</g>
<g>
</g>
<g>
</g>
<g>
</g>
<g>
</g>
<g>
</g>
<g>
</g>
<g>
</g>
<g>
</g>
<g>
</g>
<g>
</g>
<g>
</g>
<g>
</g>
<g>
</g>
<g>
</g>
<g>
</g>
</svg>
