<?xml version="1.0" encoding="iso-8859-1"?>
<!-- Generator: Adobe Illustrator 19.0.0, SVG Export Plug-In . SVG Version: 6.00 Build 0)  -->
<svg version="1.1" id="Layer_1" xmlns="http://www.w3.org/2000/svg" xmlns:xlink="http://www.w3.org/1999/xlink" x="0px" y="0px"
	 viewBox="0 0 455 455" style="enable-background:new 0 0 455 455;" xml:space="preserve">
<path style="fill-rule:evenodd;clip-rule:evenodd;" d="M0,0v455h455V0H0z M326.096,372.695C315.286,381.1,304.806,385,293.126,385
	c-9.437,0-19.757-2.588-32.493-8.164c-11.039-4.831-24.106-14.258-37.945-24.247c-17.077-12.335-34.737-25.079-49.508-29.664
	c-9.206-2.857-20.206-4.31-32.672-4.31c-14.99,0-26.824,2.164-26.945,2.185l-1.052,0.19l-0.149-1.053
	c-0.092-0.631-2.146-15.493,1.864-30.927c4.082-15.673,14.51-27.656,36.361-48.573c19.675-18.853,76.895-91.196,87.346-104.463
	c-5.938,0.952-21.051,3.119-36.554,3.119c-25.461,0-40.561-5.566-44.874-16.535c-10.31-26.244,16.938-51.746,17.218-51.995
	L174.332,70l0.673,0.48c0.121,0.082,12.073,8.284,48.294,14.623c6.469,1.132,14.361,1.705,23.467,1.705
	c36.071,0,80.525-9.006,80.966-9.095l1.284-0.262l-0.049,1.304c0,0.18-0.714,18.271-8.104,34.908
	c-5.073,11.421-21.179,28.288-41.575,49.659c-9.696,10.166-20.699,21.69-31.969,34.154c-30.868,34.146-65.122,72.163-72.523,80.386
	c5.145,0.331,18.912,1.905,39.119,9.216c10.138,3.658,21.71,10.769,33.966,18.291c18.612,11.442,37.866,23.264,52.938,23.264
	c24.627,0,40.202-12.294,40.351-12.415l1.456-1.173l0.21,1.856C343.014,318.515,346.975,356.502,326.096,372.695z"/>
<g>
</g>
<g>
</g>
<g>
</g>
<g>
</g>
<g>
</g>
<g>
</g>
<g>
</g>
<g>
</g>
<g>
</g>
<g>
</g>
<g>
</g>
<g>
</g>
<g>
</g>
<g>
</g>
<g>
</g>
</svg>
