<?xml version="1.0" encoding="iso-8859-1"?>
<!-- Generator: Adobe Illustrator 19.0.0, SVG Export Plug-In . SVG Version: 6.00 Build 0)  -->
<svg version="1.1" id="Layer_1" xmlns="http://www.w3.org/2000/svg" xmlns:xlink="http://www.w3.org/1999/xlink" x="0px" y="0px"
	 viewBox="0 0 455 455" style="enable-background:new 0 0 455 455;" xml:space="preserve">
<g>
	<path style="fill-rule:evenodd;clip-rule:evenodd;" d="M170.242,189.447h57.177c10.024,0,18.322-8.286,18.322-18.322
		c0-10.078-8.244-18.322-18.322-18.322h-57.177c-10.052,0-18.336,8.286-18.336,18.322
		C151.907,181.203,160.151,189.447,170.242,189.447z"/>
	<path style="fill-rule:evenodd;clip-rule:evenodd;" d="M0,0v455h455V0H0z M384.805,288.618c0,53.001-44.783,96.382-96.382,96.382
		H161.915c-46.493,0-91.72-42.909-91.72-95.452V170.047C70.195,114.082,114.277,70,170.242,70h66.608
		c42.304,0,91.397,47.248,91.397,92.233v8.838c0,9.915,8.003,18.376,21.556,18.376h13.81c17.096,0,21.192,9.485,21.192,23.537
		V288.618z"/>
	<path style="fill-rule:evenodd;clip-rule:evenodd;" d="M283.841,266.726H170.242c-10.052,0-18.336,8.298-18.336,18.336
		c0,10.078,8.258,18.322,18.336,18.322h113.599c10.024,0,18.336-8.3,18.336-18.322C302.177,274.97,293.933,266.726,283.841,266.726z
		"/>
</g>
<g>
</g>
<g>
</g>
<g>
</g>
<g>
</g>
<g>
</g>
<g>
</g>
<g>
</g>
<g>
</g>
<g>
</g>
<g>
</g>
<g>
</g>
<g>
</g>
<g>
</g>
<g>
</g>
<g>
</g>
</svg>
