<?xml version="1.0" encoding="iso-8859-1"?>
<!-- Generator: Adobe Illustrator 19.0.0, SVG Export Plug-In . SVG Version: 6.00 Build 0)  -->
<svg version="1.1" id="Layer_1" xmlns="http://www.w3.org/2000/svg" xmlns:xlink="http://www.w3.org/1999/xlink" x="0px" y="0px"
	 viewBox="0 0 455 455" style="enable-background:new 0 0 455 455;" xml:space="preserve">
<g>
	<path style="fill-rule:evenodd;clip-rule:evenodd;" d="M296.7,201.667c-10.24,0-18.762,7.406-20.491,17.154
		c-0.338,1.894,1.074,3.653,2.996,3.653h34.99c1.922,0,3.334-1.76,2.996-3.653C315.452,209.073,306.951,201.667,296.7,201.667z"/>
	<path style="fill-rule:evenodd;clip-rule:evenodd;" d="M0,0v455h455V0H0z M166.845,70v73.075H94.587L166.845,70z M359.739,276.46
		c-2.168,42.467-15.18,88.349-37.81,101.056c-22.631,12.707-72.237,6.825-78.742,0c0,0-16.411-10.845-16.411-40.298
		s30.671-30.689,39.971-30.689c4.285,0,7.058,0.131,8.808,0.275c1.461,0.123,2.538,1.443,2.362,2.905l-1.883,15.939
		c-0.152,1.394-1.391,2.404-2.792,2.292c-5.709-0.44-19.202-0.225-19.202,11.757c0,15.19,13.637,13.021,20.143,13.021
		c6.519,0,23.254,2.478,30.692-12.092c7.438-14.567,4.657-40.922,4.657-40.922s-2.488-8.286-14.109-10.609
		c-11.623-2.331-36.042-1.637-47.43-7.907c-8.347-4.604-14.067-15.562-16.531-21.096c-0.492-1.074-2.045-0.972-2.383,0.165
		c-2.027,6.772-6.836,21.606-11.775,28.133c-6.508,8.603-46.346,4.808-63.707,1.084c-17.359-3.714-31.928-6.199-43.713-39.06
		c-11.775-32.86-13.014-46.191-14.302-64.105c-0.725-10.046-0.93-18.055-0.972-22.67c-0.031-2.415,1.922-4.358,4.327-4.358h78.693
		c2.313,0,4.175-1.873,4.175-4.175v-80.78c0-2.394,1.943-4.327,4.327-4.327h35.05c0,0,16.421,0.306,25.412,11.469
		c8.994,11.162,10.232,17.361,10.232,17.361s71.917,4.337,83.386,9.3c11.479,4.96,16.125,20.459,17.055,35.335
		C358.196,158.349,361.918,233.983,359.739,276.46z"/>
</g>
<g>
</g>
<g>
</g>
<g>
</g>
<g>
</g>
<g>
</g>
<g>
</g>
<g>
</g>
<g>
</g>
<g>
</g>
<g>
</g>
<g>
</g>
<g>
</g>
<g>
</g>
<g>
</g>
<g>
</g>
</svg>
