<?xml version="1.0" encoding="iso-8859-1"?>
<!-- Generator: Adobe Illustrator 19.0.0, SVG Export Plug-In . SVG Version: 6.00 Build 0)  -->
<svg version="1.1" id="Layer_1" xmlns="http://www.w3.org/2000/svg" xmlns:xlink="http://www.w3.org/1999/xlink" x="0px" y="0px"
	 viewBox="0 0 455 455" style="enable-background:new 0 0 455 455;" xml:space="preserve">
<g>
	<path style="fill-rule:evenodd;clip-rule:evenodd;" d="M203.151,266.064c1.329,1.589,4.709,3.836,8.539-0.439l38.818-53.285
		l-35.711-35.719c-1.639-1.636-3.819-2.54-6.136-2.54c-2.322,0-4.504,0.904-6.143,2.543l-19.032,19.028
		c4.805,13.89,4.171,29.119-1.677,42.503C193.587,253.601,202.693,265.524,203.151,266.064z"/>
	<path style="fill-rule:evenodd;clip-rule:evenodd;" d="M287.087,248.918l-76.669,64.696c-3.32,2.695-6.325-0.099-6.325-0.099
		l-54.989-44.227c-9.18,3.492-19.011,4.559-28.552,3.276l81.966,81.959c1.643,1.643,3.822,2.547,6.143,2.547
		c2.317,0,4.494-0.904,6.133-2.543l82.812-82.805c1.644-1.644,2.547-3.823,2.547-6.141c0-2.321-0.903-4.501-2.547-6.14
		L287.087,248.918z"/>
	<path style="fill-rule:evenodd;clip-rule:evenodd;" d="M0,0v455h455V0H0z M385,166.295l-85.194,71.892l9.527,9.527
		c4.774,4.77,7.403,11.116,7.403,17.867c0,6.748-2.628,13.093-7.406,17.868l-82.808,82.802c-4.767,4.774-11.11,7.402-17.861,7.402
		c-6.751,0-13.097-2.628-17.871-7.402l-82.808-82.805c-4.798-4.798-7.247-11.063-7.372-17.365c-6.14-3.313-11.787-7.779-16.595-13.4
		c-20.951-24.49-18.084-61.321,6.407-82.272c24.483-20.958,61.321-18.08,82.272,6.407c0.962,1.127,1.859,2.287,2.723,3.462
		l15.377-15.378c4.774-4.77,11.116-7.398,17.868-7.398c6.747,0,13.094,2.628,17.861,7.398l33.872,33.873l85.538-117.423H385V166.295
		z"/>
</g>
<g>
</g>
<g>
</g>
<g>
</g>
<g>
</g>
<g>
</g>
<g>
</g>
<g>
</g>
<g>
</g>
<g>
</g>
<g>
</g>
<g>
</g>
<g>
</g>
<g>
</g>
<g>
</g>
<g>
</g>
</svg>
